name Walk6.mot
datacolumns 19
datarows 15
range 3.59100000 3.60500000
endheader

                time	   L_ground_force_vx	   L_ground_force_vy	   L_ground_force_vz	   L_ground_force_px	   L_ground_force_py	   L_ground_force_pz	   R_ground_force_vx	   R_ground_force_vy	   R_ground_force_vz	   R_ground_force_px	   R_ground_force_py	   R_ground_force_pz	   L_ground_torque_x	   L_ground_torque_y	   L_ground_torque_z	   R_ground_torque_x	   R_ground_torque_y	   R_ground_torque_z	
          3.59100000	          0.00000000	          0.00000000	          0.00000000	          0.00000000	          0.00000000	          0.00000000	          0.00000000	          0.00000000	          0.00000000	          0.00000000	          0.00000000	          0.00000000	          0.00000000	          0.00000000	          0.00000000	          0.00000000	          0.00000000	          0.00000000	
          3.59200000	          0.00000000	          0.00000000	          0.00000000	          0.00000000	          0.00000000	          0.00000000	          0.00000000	          0.00000000	          0.00000000	          0.00000000	          0.00000000	          0.00000000	          0.00000000	          0.00000000	          0.00000000	          0.00000000	          0.00000000	          0.00000000	
          3.59300000	          0.00000000	          0.00000000	          0.00000000	          0.00000000	          0.00000000	          0.00000000	          0.00000000	          0.00000000	          0.00000000	          0.00000000	          0.00000000	          0.00000000	          0.00000000	          0.00000000	          0.00000000	          0.00000000	          0.00000000	          0.00000000	
          3.59400000	          0.00000000	          0.00000000	          0.00000000	          0.00000000	          0.00000000	          0.00000000	          0.00000000	          0.00000000	          0.00000000	          0.00000000	          0.00000000	          0.00000000	          0.00000000	          0.00000000	          0.00000000	          0.00000000	          0.00000000	          0.00000000	
          3.59500000	          0.00000000	          0.00000000	          0.00000000	          0.00000000	          0.00000000	          0.00000000	          0.00000000	          0.00000000	          0.00000000	          0.00000000	          0.00000000	          0.00000000	          0.00000000	          0.00000000	          0.00000000	          0.00000000	          0.00000000	          0.00000000	
          3.59600000	          1.86172570	         14.43035358	         -5.62256231	         -0.41945030	          0.00000000	         -0.10658682	          0.00000000	          0.00000000	          0.00000000	          0.00000000	          0.00000000	          0.00000000	          0.00000000	          0.11109074	          0.00000000	          0.00000000	          0.00000000	          0.00000000	
          3.59700000	          2.93049866	         23.06678323	         -8.00142018	         -0.41755924	          0.00000000	         -0.10313193	          0.00000000	          0.00000000	          0.00000000	          0.00000000	          0.00000000	          0.00000000	          0.00000000	          0.14490984	          0.00000000	          0.00000000	          0.00000000	          0.00000000	
          3.59800000	          4.19344431	         33.52207090	        -10.23886480	         -0.41578062	          0.00000000	         -0.10000401	          0.00000000	          0.00000000	          0.00000000	          0.00000000	          0.00000000	          0.00000000	          0.00000000	          0.14107506	          0.00000000	          0.00000000	          0.00000000	          0.00000000	
          3.59900000	          5.69410450	         46.23692972	        -12.24889472	         -0.41399056	          0.00000000	         -0.09732285	          0.00000000	          0.00000000	          0.00000000	          0.00000000	          0.00000000	          0.00000000	          0.00000000	          0.08510617	          0.00000000	          0.00000000	          0.00000000	          0.00000000	
          3.60000000	          7.50689153	         62.03404157	        -14.09581279	         -0.41216718	          0.00000000	         -0.09545451	          0.00000000	          0.00000000	          0.00000000	          0.00000000	          0.00000000	          0.00000000	          0.00000000	         -0.00639191	          0.00000000	          0.00000000	          0.00000000	          0.00000000	
          3.60100000	          9.66760580	         81.86583841	        -15.86011122	         -0.41033746	          0.00000000	         -0.09460996	          0.00000000	          0.00000000	          0.00000000	          0.00000000	          0.00000000	          0.00000000	          0.00000000	         -0.09427707	          0.00000000	          0.00000000	          0.00000000	          0.00000000	
          3.60200000	         12.11033943	        106.55365573	        -17.54649718	         -0.40855927	          0.00000000	         -0.09464521	          0.00000000	          0.00000000	          0.00000000	          0.00000000	          0.00000000	          0.00000000	          0.00000000	         -0.13971587	          0.00000000	          0.00000000	          0.00000000	          0.00000000	
          3.60300000	         14.64129745	        136.45694645	        -19.06475200	         -0.40692025	          0.00000000	         -0.09518833	          0.00000000	          0.00000000	          0.00000000	          0.00000000	          0.00000000	          0.00000000	          0.00000000	         -0.11930471	          0.00000000	          0.00000000	          0.00000000	          0.00000000	
          3.60400000	         16.95621516	        171.15120845	        -20.25647355	         -0.40550672	          0.00000000	         -0.09587232	          0.00000000	          0.00000000	          0.00000000	          0.00000000	          0.00000000	          0.00000000	          0.00000000	         -0.02968305	          0.00000000	          0.00000000	          0.00000000	          0.00000000	
          3.60500000	         18.68414530	        209.27484213	        -20.94806451	         -0.40436238	          0.00000000	         -0.09643653	          0.00000000	          0.00000000	          0.00000000	          0.00000000	          0.00000000	          0.00000000	          0.00000000	          0.11061500	          0.00000000	          0.00000000	          0.00000000	          0.00000000	
